<svg id="Layer_1" data-name="Layer 1" xmlns="http://www.w3.org/2000/svg" viewBox="0 0 1500 1070"><defs><style>.cls-1{opacity:0.72;}.cls-2{fill:#75c7ea;}.cls-3{opacity:0.7;}.cls-4{fill:#fff;}.cls-5{fill:#212327;}.cls-6{opacity:0.3;}.cls-7{fill:#3d1d55;}.cls-8{fill:#ffcd01;}.cls-9{fill:#232325;}.cls-10{opacity:0.36;}.cls-11{fill:#ee3133;}.cls-12{opacity:0.55;}.cls-13{fill:#b199c5;}</style></defs><g class="cls-1"><path class="cls-2" d="M410.77,563.61l133.81-83.89,25.48-16L506,352.09c-81.25-137.9-179.33-138.38-236.67-85.86a0,0,0,0,1,0,0C190.75,338.24,188.59,509.7,410.77,563.61Z"/></g><g class="cls-3"><path class="cls-4" d="M232.08,320.82c31.81-58.22,99.29-91.95,170.1-53.67,6.81,35.37,29.46,53.11,64.9,56.6h0a377.39,377.39,0,0,1,31,45.22l59,102.92,13-8.14L506,352.09C402.06,175.7,270.61,224.15,232.08,320.82Z"/></g><g class="cls-1"><path class="cls-2" d="M656,439.84l16.64,49s131.51,26.47,130.8,30.44c-.32,1.74,30.95-38.67,66-84.47,44.66-58.25,95.53-125.23,95.53-125.23,57.42-171-55.89-259.92-161.58-223.65l0,0C718.29,115.2,638.07,225.66,656,439.84Z"/></g><g class="cls-3"><path class="cls-4" d="M947.85,322.82S837.06,468.69,799,517.15c3,1,4.59,1.7,4.51,2.16-.72,4,161.58-209.7,161.58-209.7C1033,107.11,861.7,19.77,747,119,860.69,41.81,1012.49,130.24,947.85,322.82Z"/></g><path class="cls-5" d="M656,448.08l.7,0a8.23,8.23,0,0,0,7.51-8.89c-13.83-165,31.85-291,122.2-337C835.82,77,890.05,81.61,928,114.3c46.31,39.94,57,110.17,29.29,192.68a8.23,8.23,0,0,0,15.61,5.24c15.56-46.34,19.74-89,12.44-126.7-6.61-34.17-22.72-63.11-46.59-83.69C895.64,64.68,834.42,59.18,779,87.45c-43.62,22.23-79,62.9-102.18,117.59-27,63.53-36.72,142.76-28.95,235.49A8.24,8.24,0,0,0,656,448.08Z"/><g class="cls-6"><path class="cls-7" d="M656,439.84l16.64,49s131.51,26.47,130.8,30.44c-.32,1.74,30.95-38.67,66-84.47a323.82,323.82,0,0,0-58-18.29C587.14,367,801.25,88.83,803.45,86,718.29,115.2,638.07,225.66,656,439.84Z"/></g><path class="cls-7" d="M346.94,796.67s-29.7,38.77-37.64,124.58c0,0,39.05-36.84,72.19-45.29"/><path class="cls-8" d="M497.12,1011.92a16.86,16.86,0,0,0,16,11.67,17.09,17.09,0,0,0,5.2-.81,189.78,189.78,0,0,0,56-29.21c37.52-28.37,54.27-62.16,55.22-64.14a16.87,16.87,0,0,0-30.34-14.75c-.33.68-17,33.55-53.71,57.86A152.48,152.48,0,0,1,508,990.69,16.86,16.86,0,0,0,497.12,1011.92Z"/><path class="cls-5" d="M489.3,1014.47a25.09,25.09,0,0,1,16.13-31.61c59.45-19.27,86.14-71.32,86.37-71.78A25.1,25.1,0,0,1,637,933c-1.41,2.9-35.34,71.44-116.05,97.6a25.06,25.06,0,0,1-31.61-16.14Zm117.28-96.12c-1.19,2.39-29.8,58.7-96.07,80.17a8.64,8.64,0,0,0,2.66,16.85,8.37,8.37,0,0,0,2.66-.43c74.1-24,105-86.45,106.3-89.1a8.63,8.63,0,1,0-15.55-7.49Z"/><g class="cls-6"><path class="cls-7" d="M545.49,972.54l4.72,3.11s14,6.31,24.11,17.92c37.52-28.37,54.27-62.16,55.22-64.14a16.87,16.87,0,0,0-30.34-14.75C598.87,915.36,582.22,948.23,545.49,972.54Z"/></g><path class="cls-8" d="M833.71,794.13a16.5,16.5,0,0,0,.55,4.7c.79,3,17.24,61.25,89.7,95.79a240.89,240.89,0,0,0,52.88,17.8,16,16,0,0,0,3.61.4A16.86,16.86,0,0,0,984,879.48c-27.83-6.07-49.3-15.87-65.77-26.76-32-21.21-45.14-46.67-49.52-57.4a46.22,46.22,0,0,1-1.87-5.18,16.86,16.86,0,0,0-33.15,4Z"/><path class="cls-5" d="M975.08,920.48C852.41,893.71,827.32,804.74,826.31,801a25.1,25.1,0,0,1,48.48-13c.73,2.58,19,63.44,111,83.5A25.11,25.11,0,0,1,1005,901.3a25.23,25.23,0,0,1-24.5,19.76A25.66,25.66,0,0,1,975.08,920.48ZM848.33,786.15a8.63,8.63,0,0,0-6.11,10.56c.9,3.38,23.4,83,136.37,107.68a8.7,8.7,0,0,0,10.27-6.6,8.61,8.61,0,0,0-6.59-10.27C879.64,865.13,859.1,793,858.9,792.26a8.6,8.6,0,0,0-10.57-6.11Z"/><g class="cls-6"><path class="cls-7" d="M833.71,794.13a16.5,16.5,0,0,0,.55,4.7c.79,3,17.24,61.25,89.7,95.79-8.63-16-7.12-33.67-5.71-41.9-32-21.21-45.14-46.67-49.52-57.4a55,55,0,0,0-15-4.19C848.82,790.52,842.85,791.49,833.71,794.13Z"/></g><g class="cls-1"><path class="cls-2" d="M687.77,439.84C861.46,78.39,481.43-17.73,495.16,328.61c0,0,45.13,106.7,88.12,138.44"/></g><path class="cls-5" d="M687.77,448.08a8.25,8.25,0,0,0,7.43-4.67c32.66-68,48.2-130.76,46.18-186.57-2.21-61.18-24.88-97.31-43.51-116.84-32.22-33.78-77.48-44.07-118.11-26.86-62.43,26.45-97.13,107.12-92.82,215.79a8.23,8.23,0,1,0,16.45-.65c-4-101.55,26.92-176.3,82.79-200,34.17-14.48,72.4-5.64,99.77,23.06,16.66,17.46,36.95,50,39,106.07,1.92,53.11-13.08,113.29-44.58,178.84a8.22,8.22,0,0,0,3.86,11A8.09,8.09,0,0,0,687.77,448.08Z"/><g class="cls-1"><path class="cls-2" d="M568.71,455.3,688.65,443l31.09-3.18C862,167.52,723.13,38.42,601.39,46.77,483.09,54.93,381,192.84,568.71,455.3Z"/></g><g class="cls-3"><path class="cls-4" d="M720.06,118.48v0c-16,46.25-.22,76.38,36.07,96.11,6.09,59.14-8.52,134.82-55.76,227.22l19.37-2c163.67-313.27-44.72-437-171.09-380C607.89,43.87,678,63.16,720.06,118.48Z"/></g><path class="cls-5" d="M568.72,463.53a8.24,8.24,0,0,0,6.69-13C465.62,297,442.71,163.44,514.14,93.19,562.83,45.3,646.8,41.73,705.29,85.07c86,63.71,88.68,194.91,7.15,351A8.23,8.23,0,1,0,727,443.66c46.25-88.52,66.43-167.9,60-235.94-7-73.43-43-114.43-71.91-135.88A172.61,172.61,0,0,0,605.33,38.32c-39.67,1.67-76.16,17-102.74,43.13-24.4,24-51.95,68.35-44.58,143.33,6.8,69.16,41.79,148.32,104,235.3A8.23,8.23,0,0,0,568.72,463.53Z"/><path class="cls-5" d="M410.77,571.85a8.24,8.24,0,0,0,1.94-16.24C249.32,516,230,420.36,229.22,381.09c-1.16-61.82,38.31-119.85,91.82-135,61.54-17.41,126.37,22.74,177.88,110.15a8.23,8.23,0,1,0,14.18-8.36c-79-134-163.75-126.91-196.54-117.64-61.47,17.39-105.13,80.95-103.81,151.14.77,40.84,16.8,79.24,46.36,111.05,34.1,36.7,84.47,63.34,149.71,79.17A8.72,8.72,0,0,0,410.77,571.85Z"/><path class="cls-4" d="M345.39,786.45a319.92,319.92,0,0,0,9.05,43.69c28.38,68.73,89.64,106.77,161.17,120.18a321.19,321.19,0,0,0,33.91,4.44c59.07,4.7,122.42-5.63,178.63-28,36-14.27,69-33.46,96.09-56.73,30.34-26.05,53.28-57.24,64.58-92.46L803.55,566.73,755.67,448.36c-38.93-12.44-81.55-14.83-124.19-8.58l-.25.06A353.69,353.69,0,0,0,526.41,473a364,364,0,0,0-79.17,53v0c-31.95,28.16-58.71,62.15-77.16,100.8v0C347.62,673.91,337.5,727.82,345.39,786.45Z"/><path class="cls-9" d="M728.15,926.81c36-14.27,69-33.46,96.09-56.73-110.06,11.15-254.18-207.26-193-430.24A353.69,353.69,0,0,0,526.41,473C496.31,717.86,599.14,905.22,728.15,926.81Z"/><path class="cls-9" d="M515.61,950.32q6.61,3.12,13.43,5.57l20.48-1.13,97-5.32c-90.91,2-245.47-279.06-199.3-423.37-31.95,28.16-58.71,62.15-77.16,100.8v0C347.46,730.06,410.14,900.68,515.61,950.32Z"/><g class="cls-3"><path class="cls-4" d="M345.39,786.45a319.92,319.92,0,0,0,9.05,43.69c1.19,2.88,2.42,5.69,3.73,8.45a311.83,311.83,0,0,1-6.07-32.3c-7.9-58.63,2.22-112.54,24.68-159.56v0C395.24,608.06,422,574.07,454,545.91h0a363.67,363.67,0,0,1,79.16-53,353.47,353.47,0,0,1,104.82-33.19l.26-.06c42.64-6.25,85.26-3.87,124.19,8.57l47.87,118.37,78,192.84c.22-.6.4-1.19.59-1.79L803.55,566.73,755.67,448.36c-38.93-12.44-81.55-14.83-124.19-8.58l-.25.06A353.69,353.69,0,0,0,526.41,473a364,364,0,0,0-79.17,53v0c-31.95,28.16-58.71,62.15-77.16,100.8v0C347.62,673.91,337.5,727.82,345.39,786.45Z"/></g><path class="cls-8" d="M577.87,964.11c51,0,104.47-10.25,153.32-29.65,37.36-14.83,71.39-34.93,98.42-58.13,33.13-28.46,55.7-60.82,67-96.19a8.23,8.23,0,1,0-15.67-5c-10.42,32.43-31.32,62.29-62.11,88.73-25.66,22-58.08,41.16-93.77,55.32-55.9,22.2-118,31.94-174.94,27.4a310.52,310.52,0,0,1-33-4.33c-53.05-9.94-122.93-37.94-154.88-114.77-19-68.26-13.69-136.38,15.27-197l.15-.34c17.44-36.43,42.68-69.35,75-97.85l.36-.33a354.56,354.56,0,0,1,77-51.5A343.74,343.74,0,0,1,632.43,448a5.72,5.72,0,0,0,.57-.11c42.33-6.16,83.87-3.28,120.16,8.32a8.24,8.24,0,0,0,5-15.69c-38.76-12.38-83-15.46-127.89-8.87a5.4,5.4,0,0,0-.58.11,359.75,359.75,0,0,0-107,33.91,371.66,371.66,0,0,0-81,54.22l-.36.34c-33.93,30-60.44,64.67-78.78,103.1-.06.11-.11.23-.16.34-30.64,64.35-36.16,136.5-16,208.7.09.31.2.62.32.92,27.06,65.54,86.46,110,167.26,125.13A328.42,328.42,0,0,0,548.88,963Q563.19,964.11,577.87,964.11Z"/><path class="cls-4" d="M309.3,929.48a8.23,8.23,0,0,0,5.65-2.24c.38-.35,37.92-35.48,68.57-43.3a8.23,8.23,0,1,0-4.06-16c-21.39,5.45-44.5,21.47-59.51,33.36,9.89-68.11,33.27-99.33,33.53-99.67a8.23,8.23,0,0,0-13.07-10c-1.27,1.66-31.24,41.66-39.31,128.83a8.24,8.24,0,0,0,8.2,9Z"/><g class="cls-10"><path class="cls-4" d="M363.77,765c20,31.65,86.88-7.18,167.44-58.1s144.33-94.68,124.32-126.33-101.54-16-182.1,34.91S343.77,733.32,363.77,765Z"/></g><g class="cls-6"><path class="cls-7" d="M345.39,786.45a319.92,319.92,0,0,0,9.05,43.69c28.38,68.73,89.64,106.77,161.17,120.18a321.19,321.19,0,0,0,33.91,4.44c59.07,4.7,122.42-5.63,178.63-28,36-14.27,69-33.46,96.09-56.73,30.34-26.05,53.28-57.24,64.58-92.46L803.55,566.73l-72.13-3.12S719.28,1001.33,345.39,786.45Z"/></g><ellipse class="cls-4" cx="1005.23" cy="562.38" rx="273.81" ry="279.76"/><g class="cls-6"><path class="cls-7" d="M731.42,563.61c0,154.51,122.58,279.76,273.81,279.76,125.86,0,231.87-86.74,263.89-204.9-41,86.27-127.64,145.76-227.86,145.76C901.38,784.23,788,668.37,788,525.48c0-99.13,54.56-185.26,134.7-228.69C811.82,332.54,731.42,438.49,731.42,563.61Z"/></g><g class="cls-3"><path class="cls-4" d="M803.47,374.51c49-47.3,115.14-76.27,187.87-76.27a268.6,268.6,0,0,1,160,52.72c3,45.11,28.36,68,69.74,74.82a284.56,284.56,0,0,1-28,341.32c52.92-51,85.93-123.29,85.93-203.49,0-154.5-122.58-279.76-273.81-279.76C925.37,283.85,853.51,318.77,803.47,374.51Z"/></g><path class="cls-5" d="M723.19,563.61c0-158.8,126.52-288,282-288s282,129.19,282,288-126.52,288-282,288S723.19,722.41,723.19,563.61Zm16.47,0c0,149.72,119.13,271.53,265.57,271.53s265.58-121.81,265.58-271.53-119.14-271.52-265.58-271.52S739.66,413.89,739.66,563.61Z"/><ellipse class="cls-11" cx="1171.65" cy="683.16" rx="35.47" ry="20.34"/><ellipse class="cls-11" cx="903.22" cy="686.13" rx="37.37" ry="22.32"/><path class="cls-5" d="M1084.69,682.54a56.72,56.72,0,0,1-49.55,27.05c-21-.42-35.91-14.9-45.9-32.53a2,2,0,0,0-3.76,1.22,55.31,55.31,0,0,0,4.2,17.23c16.48,39.07,71.39,40.25,93,5.37a40.24,40.24,0,0,0,5.79-17.11,2,2,0,0,0-3.78-1.23Z"/><ellipse class="cls-8" cx="1203.64" cy="181.01" rx="36.04" ry="29.1" transform="translate(578.01 1225.09) rotate(-67.62)"/><path class="cls-4" d="M1186.79,222c-9.54-3.92-16.56-12-19.77-22.86a48.81,48.81,0,0,1,2.1-32.29h0a48.77,48.77,0,0,1,21.25-24.41c9.9-5.43,20.6-6.25,30.13-2.32s16.56,12,19.77,22.86a48.81,48.81,0,0,1-2.1,32.29c-7.37,17.89-23.37,29.13-39.16,29.13A31.9,31.9,0,0,1,1186.79,222Zm11.49-65.12a32.29,32.29,0,0,0-13.93,16.24h0a32.27,32.27,0,0,0-1.54,21.33c1.76,5.95,5.41,10.33,10.25,12.33,10.63,4.37,24-3.6,29.88-17.78a32.27,32.27,0,0,0,1.54-21.33c-1.77-6-5.41-10.33-10.25-12.33a15.82,15.82,0,0,0-6.07-1.18A20.68,20.68,0,0,0,1198.28,156.83Z"/><ellipse class="cls-8" cx="922.48" cy="174" rx="36.04" ry="29.1" transform="translate(410.37 960.76) rotate(-67.62)"/><path class="cls-4" d="M905.62,214.94c-19-7.83-27-32.58-17.66-55.16h0a48.77,48.77,0,0,1,21.24-24.4c9.9-5.43,20.6-6.25,30.14-2.32s16.55,12,19.76,22.86a50.58,50.58,0,0,1-23.34,56.7A37,37,0,0,1,918,217.39,32.24,32.24,0,0,1,905.62,214.94Zm11.49-65.12a32.31,32.31,0,0,0-13.93,16.23h0c-5.83,14.18-1.93,29.29,8.71,33.67,4.84,2,10.51,1.45,16-1.54a34.2,34.2,0,0,0,15.47-37.57c-1.77-6-5.41-10.33-10.25-12.33A15.85,15.85,0,0,0,927,147.1,20.72,20.72,0,0,0,917.11,149.82Z"/><path class="cls-4" d="M1120.1,317.83a8.25,8.25,0,0,0,7.68-5.26c15.4-39.78,35.66-72.65,60.22-97.67a8.23,8.23,0,0,0-11.75-11.53c-26.14,26.63-47.62,61.37-63.83,103.26a8.24,8.24,0,0,0,4.71,10.65A8.34,8.34,0,0,0,1120.1,317.83Z"/><path class="cls-4" d="M905.86,342.35a8.06,8.06,0,0,0,2.95-.55,8.24,8.24,0,0,0,4.73-10.64c-23.11-60.18-.28-118.21,0-118.79a8.23,8.23,0,0,0-15.26-6.19c-1.06,2.61-25.57,64.46-.06,130.89A8.24,8.24,0,0,0,905.86,342.35Z"/><g class="cls-12"><ellipse class="cls-4" cx="930.66" cy="165.8" rx="11.74" ry="14.88"/></g><g class="cls-12"><ellipse class="cls-4" cx="1214.06" cy="171.68" rx="11.74" ry="14.88"/></g><path class="cls-8" d="M684.22,791.17C695,810.74,711.09,830.6,735,848.33a16.57,16.57,0,0,0,6.86,3,16.87,16.87,0,0,0,13.26-30.1c-20.42-15.16-33.77-32.26-42.44-48.93-21.25-40.69-14.55-78.75-14.45-79.28a16.86,16.86,0,0,0-13.39-19.68h-.06a16.82,16.82,0,0,0-19.68,13.43C664.5,689.64,655.73,739.39,684.22,791.17Z"/><path class="cls-5" d="M740.26,859.44h0a25,25,0,0,1-10.21-4.5c-91.11-67.65-73.87-165.53-73.1-169.67a25.1,25.1,0,0,1,49.34,9.25c-.12.71-11.83,71.47,53.69,120.12a25.1,25.1,0,0,1,5.18,35.11A25.23,25.23,0,0,1,745,859.89,24.83,24.83,0,0,1,740.26,859.44Zm1.54-8.08h0Zm-68.66-163c-.7,3.72-16.2,91.82,66.73,153.4a8.49,8.49,0,0,0,3.5,1.55h0a8.64,8.64,0,0,0,6.79-15.41C675.76,772.61,690,692.32,690.1,691.52a8.65,8.65,0,0,0-6.88-10.08,8.75,8.75,0,0,0-1.6-.15A8.64,8.64,0,0,0,673.14,688.32Z"/><path class="cls-8" d="M451.94,950.42a16.87,16.87,0,0,0,20.78,11.72c25.65-7.14,45.87-18.69,61.76-32a0,0,0,0,0,0,0c47.26-39.58,56.37-95,56.85-98.08A16.87,16.87,0,0,0,558,826.89c-.3,1.92-4.76,27.79-23.51,53.83-14.07,19.6-36.25,39.3-70.83,48.92A16.88,16.88,0,0,0,451.94,950.42Z"/><path class="cls-5" d="M444,952.62a25.13,25.13,0,0,1,17.44-30.91c75.48-21,87.94-93.09,88.42-96.1a25.1,25.1,0,0,1,49.61,7.68c-.67,4.35-17.61,107-124.56,136.78A25.1,25.1,0,0,1,444,952.62ZM566.15,828.19c-.56,3.48-14.74,85.56-100.27,109.38a8.63,8.63,0,1,0,4.63,16.63c96.83-27,112.1-119.48,112.7-123.41A8.65,8.65,0,0,0,576,821a9.75,9.75,0,0,0-1.31-.1A8.67,8.67,0,0,0,566.15,828.19Z"/><g class="cls-6"><path class="cls-7" d="M534.5,930.12c47.26-39.58,56.37-95,56.85-98.08A16.87,16.87,0,0,0,558,826.89c-.3,1.92-4.76,27.79-23.51,53.83C534.5,880.72,555.18,899.15,534.5,930.12Z"/></g><g class="cls-6"><path class="cls-7" d="M684.22,791.17a31.39,31.39,0,0,0,.58-5.34c1-30.75,27.82-13.49,27.82-13.49l0,0c-21.25-40.69-14.55-78.75-14.45-79.28a16.86,16.86,0,0,0-13.39-19.68h-.06a16.82,16.82,0,0,0-19.68,13.43C664.5,689.64,655.73,739.39,684.22,791.17Z"/></g><g class="cls-6"><path class="cls-7" d="M568.71,455.3,688.65,443l-.66-1.19c-166.54-2-222.93-348.45-86.58-395l0,0C483.09,54.93,381,192.84,568.71,455.3Z"/></g><g class="cls-6"><path class="cls-7" d="M410.75,563.61a334.27,334.27,0,0,1,36.49-37.54v0a360,360,0,0,1,51.39-37.73C381.82,520.38,198.07,399.8,269.32,266.25,190.75,338.24,188.59,509.69,410.75,563.61Z"/></g><path class="cls-9" d="M1131.41,507.37c-23.87,1.67-41.09,31.1-38.45,65.73s24.13,61.36,48,59.69,41.09-31.1,38.45-65.73S1155.28,505.7,1131.41,507.37Z"/><path class="cls-4" d="M1132.23,521.93c-6.93,4.41-8.14,16.57-2.7,27.14s15.47,15.58,22.4,11.16,8.15-16.57,2.71-27.14S1139.17,517.51,1132.23,521.93Z"/><path class="cls-13" d="M1119.76,599.53c-3.09,3.23-2.41,9.7,1.51,14.44s9.59,6,12.68,2.74,2.41-9.7-1.51-14.44S1122.84,596.29,1119.76,599.53Z"/><path class="cls-5" d="M896.09,534.29c32.13,8.84,56,34.82,68.32,65l12.45-17.45a261.93,261.93,0,0,0-45.84.67c-15.2,1.68-30.26,5.19-44.06,11.24a2.46,2.46,0,0,0,1.48,4.67c28.38-5.63,57-.89,84.42,6.89,10.22,3,18.55-8.87,12.45-17.44-15-22.87-36.13-43.09-62.17-52.52a108.49,108.49,0,0,0-26-6.06,2.58,2.58,0,0,0-1,5Z"/></svg>