<svg id="Layer_1" data-name="Layer 1" xmlns="http://www.w3.org/2000/svg" viewBox="0 0 4450 1070"><defs><style>.cls-1{opacity:0.72;}.cls-2{fill:#75c7ea;}.cls-3{opacity:0.7;}.cls-4{fill:#fff;}.cls-5{fill:#212327;}.cls-6{opacity:0.3;}.cls-7{fill:#3d1d55;}.cls-15,.cls-8{fill:#ffcd01;}.cls-9{fill:#232325;}.cls-10{opacity:0.36;}.cls-11{fill:#ee3133;}.cls-12{fill:#25231d;}.cls-13{opacity:0.55;}.cls-14{fill:#b199c5;}.cls-15{stroke:#1d1d1b;stroke-miterlimit:10;stroke-width:10px;}</style></defs><g class="cls-1"><path class="cls-2" d="M237.08,563.61l133.8-83.89,25.48-16L332.31,352.09C251.06,214.19,153,213.71,95.65,266.23a0,0,0,0,1,0,0C17.06,338.24,14.89,509.7,237.08,563.61Z"/></g><g class="cls-3"><path class="cls-4" d="M58.39,320.82c31.8-58.22,99.28-91.95,170.09-53.67,6.81,35.37,29.47,53.11,64.9,56.6h0a377.4,377.4,0,0,1,31,45.22l59,102.92,13-8.14L332.31,352.09C228.37,175.7,96.92,224.15,58.39,320.82Z"/></g><g class="cls-1"><path class="cls-2" d="M482.33,439.84l16.65,49s131.51,26.47,130.79,30.44c-.32,1.74,31-38.67,66.05-84.47,44.67-58.25,95.54-125.23,95.54-125.23C848.78,138.58,735.47,49.69,629.77,86l0,0C544.59,115.2,464.38,225.66,482.33,439.84Z"/></g><g class="cls-3"><path class="cls-4" d="M774.16,322.82S663.36,468.69,625.27,517.15c3,1,4.58,1.7,4.5,2.16-.71,4,161.59-209.7,161.59-209.7,68-202.5-103.35-289.84-218-190.66C687,41.81,838.8,130.24,774.16,322.82Z"/></g><path class="cls-5" d="M482.32,448.08c.23,0,.47,0,.7,0a8.24,8.24,0,0,0,7.52-8.89c-13.84-165,31.84-291,122.19-337C662.12,77,716.36,81.61,754.26,114.3c46.32,39.94,57,110.17,29.29,192.68a8.23,8.23,0,0,0,15.61,5.24c15.56-46.34,19.75-89,12.44-126.7C805,151.35,788.88,122.41,765,101.83,721.94,64.68,660.73,59.18,605.25,87.45c-43.61,22.23-79,62.9-102.18,117.59-27,63.53-36.72,142.76-28.94,235.49A8.23,8.23,0,0,0,482.32,448.08Z"/><g class="cls-6"><path class="cls-7" d="M482.33,439.84l16.65,49s131.51,26.47,130.79,30.44c-.32,1.74,31-38.67,66.05-84.47a323.71,323.71,0,0,0-58-18.29C413.44,367,627.55,88.83,629.75,86,544.59,115.2,464.38,225.66,482.33,439.84Z"/></g><path class="cls-7" d="M173.25,796.67s-29.71,38.77-37.64,124.58c0,0,39-36.84,72.18-45.29"/><path class="cls-8" d="M323.42,1011.92a16.91,16.91,0,0,0,21.25,10.86,189.72,189.72,0,0,0,56-29.21c37.52-28.37,54.26-62.16,55.21-64.14a16.86,16.86,0,0,0-30.33-14.75c-.34.68-17,33.55-53.71,57.86a152.83,152.83,0,0,1-37.52,18.15A16.87,16.87,0,0,0,323.42,1011.92Z"/><path class="cls-5" d="M315.6,1014.47a25.09,25.09,0,0,1,16.14-31.61c59.44-19.27,86.13-71.32,86.36-71.78A25.1,25.1,0,0,1,463.26,933c-1.41,2.9-35.33,71.44-116,97.6a25.06,25.06,0,0,1-31.61-16.14Zm117.28-96.12c-1.19,2.39-29.79,58.7-96.06,80.17a8.64,8.64,0,0,0,2.65,16.85,8.43,8.43,0,0,0,2.67-.43c74.1-24,105-86.45,106.3-89.1a8.63,8.63,0,1,0-15.56-7.49Z"/><g class="cls-6"><path class="cls-7" d="M371.8,972.54l4.72,3.11s14,6.31,24.11,17.92c37.52-28.37,54.26-62.16,55.21-64.14a16.86,16.86,0,0,0-30.33-14.75C425.17,915.36,408.52,948.23,371.8,972.54Z"/></g><path class="cls-8" d="M660,794.13a16.52,16.52,0,0,0,.56,4.7c.79,3,17.24,61.25,89.7,95.79a241,241,0,0,0,52.87,17.8,16,16,0,0,0,3.62.4,16.87,16.87,0,0,0,3.57-33.34c-27.84-6.07-49.31-15.87-65.78-26.76-32-21.21-45.14-46.67-49.52-57.4a46.22,46.22,0,0,1-1.87-5.18,16.86,16.86,0,0,0-33.15,4Z"/><path class="cls-5" d="M801.39,920.48C678.71,893.71,653.62,804.74,652.62,801a25.1,25.1,0,0,1,48.47-13c.74,2.58,19,63.44,111,83.5a25.11,25.11,0,0,1,19.17,29.87,25.24,25.24,0,0,1-24.51,19.76A25.57,25.57,0,0,1,801.39,920.48ZM674.64,786.15a8.6,8.6,0,0,0-6.11,10.56c.9,3.38,23.39,83,136.36,107.68a8.71,8.71,0,0,0,10.28-6.6,8.63,8.63,0,0,0-6.6-10.27C706,865.13,685.4,793,685.2,792.26a8.59,8.59,0,0,0-10.56-6.11Z"/><g class="cls-6"><path class="cls-7" d="M660,794.13a16.52,16.52,0,0,0,.56,4.7c.79,3,17.24,61.25,89.7,95.79-8.63-16-7.13-33.67-5.72-41.9-32-21.21-45.14-46.67-49.52-57.4a54.92,54.92,0,0,0-14.94-4.19C675.13,790.52,669.16,791.49,660,794.13Z"/></g><g class="cls-1"><path class="cls-2" d="M514.08,439.84C687.77,78.39,307.73-17.73,321.47,328.61c0,0,45.12,106.7,88.11,138.44"/></g><path class="cls-5" d="M514.07,448.08a8.24,8.24,0,0,0,7.43-4.67c32.67-68,48.21-130.76,46.19-186.57-2.22-61.18-24.89-97.31-43.52-116.84-32.22-33.78-77.48-44.07-118.1-26.86-62.44,26.45-97.14,107.12-92.83,215.79a8.24,8.24,0,1,0,16.46-.65c-4-101.55,26.92-176.3,82.79-200,34.16-14.48,72.39-5.64,99.77,23.06,16.66,17.46,36.94,50,39,106.07,1.92,53.11-13.07,113.29-44.57,178.84a8.22,8.22,0,0,0,3.85,11A8.12,8.12,0,0,0,514.07,448.08Z"/><g class="cls-1"><path class="cls-2" d="M395,455.3,515,443,546,439.84c142.28-272.32,3.4-401.42-118.35-393.07C309.4,54.93,207.27,192.84,395,455.3Z"/></g><g class="cls-3"><path class="cls-4" d="M546.36,118.48v0c-16,46.25-.22,76.38,36.07,96.11,6.09,59.14-8.51,134.82-55.75,227.22l19.36-2c163.67-313.27-44.72-437-171.09-380C434.2,43.87,504.32,63.16,546.36,118.48Z"/></g><path class="cls-5" d="M395,463.53a8.24,8.24,0,0,0,6.69-13C291.92,297,269,163.44,340.44,93.19c48.7-47.89,132.67-51.46,191.16-8.12,86,63.71,88.67,194.91,7.14,351a8.24,8.24,0,0,0,14.6,7.63c46.25-88.52,66.42-167.9,60-235.94-7-73.43-43-114.43-71.92-135.88A172.57,172.57,0,0,0,431.63,38.32C392,40,355.48,55.31,328.9,81.45c-24.41,24-51.95,68.35-44.58,143.33,6.79,69.16,41.79,148.32,104,235.3A8.23,8.23,0,0,0,395,463.53Z"/><path class="cls-5" d="M237.07,571.85A8.24,8.24,0,0,0,239,555.61C75.62,516,56.26,420.36,55.52,381.09c-1.16-61.82,38.31-119.85,91.82-135,61.54-17.41,126.38,22.74,177.88,110.15a8.23,8.23,0,0,0,14.19-8.36c-79-134-163.76-126.91-196.55-117.64C81.39,247.65,37.74,311.21,39.06,381.4c.77,40.84,16.8,79.24,46.35,111.05,34.1,36.7,84.47,63.34,149.72,79.17A8.64,8.64,0,0,0,237.07,571.85Z"/><path class="cls-8" d="M171.7,786.45a316.94,316.94,0,0,0,9.05,43.69c28.37,68.73,89.64,106.77,161.17,120.18a321.19,321.19,0,0,0,33.91,4.44c59.06,4.7,122.42-5.63,178.63-28,35.95-14.27,69-33.46,96.09-56.73,30.33-26.05,53.27-57.24,64.58-92.46L629.85,566.73,582,448.36c-38.92-12.44-81.54-14.83-124.18-8.58l-.26.06A353.78,353.78,0,0,0,352.71,473a364.29,364.29,0,0,0-79.17,53v0c-31.94,28.16-58.71,62.15-77.16,100.8v0C173.92,673.91,163.8,727.82,171.7,786.45Z"/><path class="cls-9" d="M554.46,926.81c35.95-14.27,69-33.46,96.09-56.73-110.06,11.15-254.19-207.26-193-430.24A353.78,353.78,0,0,0,352.71,473C322.61,717.86,425.45,905.22,554.46,926.81Z"/><path class="cls-9" d="M341.92,950.32c4.4,2.08,8.89,3.93,13.43,5.57l20.48-1.13,97-5.32c-90.91,2-245.48-279.06-199.31-423.37-31.94,28.16-58.71,62.15-77.16,100.8v0C173.76,730.06,236.44,900.68,341.92,950.32Z"/><g class="cls-3"><path class="cls-4" d="M171.7,786.45a316.94,316.94,0,0,0,9.05,43.69c1.19,2.88,2.42,5.69,3.73,8.45a309.2,309.2,0,0,1-6.07-32.3c-7.9-58.63,2.22-112.54,24.68-159.56v0c18.45-38.65,45.22-72.64,77.16-100.8h0a363.73,363.73,0,0,1,79.17-53,353.38,353.38,0,0,1,104.82-33.19l.26-.06c42.63-6.25,85.25-3.87,124.18,8.57l47.88,118.37,78,192.84c.22-.6.4-1.19.6-1.79L629.85,566.73,582,448.36c-38.92-12.44-81.54-14.83-124.18-8.58l-.26.06A353.78,353.78,0,0,0,352.71,473a364.29,364.29,0,0,0-79.17,53v0c-31.94,28.16-58.71,62.15-77.16,100.8v0C173.92,673.91,163.8,727.82,171.7,786.45Z"/></g><path class="cls-5" d="M404.17,964.11c51,0,104.48-10.25,153.32-29.65,37.36-14.83,71.4-34.93,98.42-58.13,33.14-28.46,55.7-60.82,67.06-96.19a8.24,8.24,0,1,0-15.68-5c-10.42,32.43-31.31,62.29-62.11,88.73-25.65,22-58.08,41.16-93.76,55.32-55.91,22.2-118,31.94-174.94,27.4a310.7,310.7,0,0,1-33.06-4.33c-53-9.94-122.93-37.94-154.88-114.77-19-68.26-13.69-136.38,15.27-197l.15-.34c17.45-36.43,42.69-69.35,75-97.85l.35-.33a355,355,0,0,1,77-51.5A343.74,343.74,0,0,1,458.73,448a5.72,5.72,0,0,0,.57-.11c42.33-6.16,83.87-3.28,120.17,8.32a8.24,8.24,0,1,0,5-15.69c-38.76-12.38-83-15.46-127.89-8.87-.19,0-.39.06-.58.11a359.69,359.69,0,0,0-106.95,33.91,371.18,371.18,0,0,0-81,54.22,3.89,3.89,0,0,0-.36.34c-33.93,30-60.44,64.67-78.79,103.1l-.15.34c-30.64,64.35-36.17,136.5-16,208.7a7.71,7.71,0,0,0,.32.92c27.05,65.54,86.45,110,167.26,125.13A328.08,328.08,0,0,0,375.19,963C384.73,963.73,394.41,964.11,404.17,964.11Z"/><path class="cls-5" d="M135.61,929.48a8.27,8.27,0,0,0,5.65-2.24c.37-.35,37.92-35.48,68.57-43.3a8.23,8.23,0,0,0-4.07-16c-21.39,5.45-44.49,21.47-59.51,33.36,9.89-68.11,33.27-99.33,33.53-99.67a8.23,8.23,0,0,0-13.07-10c-1.27,1.66-31.24,41.66-39.3,128.83a8.23,8.23,0,0,0,8.2,9Z"/><g class="cls-10"><path class="cls-4" d="M190.08,765c20,31.65,86.87-7.18,167.44-58.1s144.32-94.68,124.32-126.33-101.54-16-182.11,34.91S170.07,733.32,190.08,765Z"/></g><g class="cls-6"><path class="cls-7" d="M171.7,786.45a316.94,316.94,0,0,0,9.05,43.69c28.37,68.73,89.64,106.77,161.17,120.18a321.19,321.19,0,0,0,33.91,4.44c59.06,4.7,122.42-5.63,178.63-28,35.95-14.27,69-33.46,96.09-56.73,30.33-26.05,53.27-57.24,64.58-92.46L629.85,566.73l-72.12-3.12S545.59,1001.33,171.7,786.45Z"/></g><ellipse class="cls-8" cx="831.54" cy="562.38" rx="273.81" ry="279.76"/><g class="cls-6"><path class="cls-7" d="M557.73,563.61c0,154.51,122.58,279.76,273.81,279.76,125.85,0,231.86-86.74,263.88-204.9-41,86.27-127.63,145.76-227.85,145.76-139.88,0-253.25-115.86-253.25-258.75,0-99.13,54.56-185.26,134.7-228.69C638.13,332.54,557.73,438.49,557.73,563.61Z"/></g><g class="cls-3"><path class="cls-4" d="M629.77,374.51c49-47.3,115.14-76.27,187.88-76.27a268.62,268.62,0,0,1,160,52.72c3,45.11,28.35,68,69.74,74.82a284.55,284.55,0,0,1-28,341.32c52.92-51,85.94-123.29,85.94-203.49,0-154.5-122.58-279.76-273.81-279.76C751.68,283.85,679.81,318.77,629.77,374.51Z"/></g><path class="cls-5" d="M549.5,563.61c0-158.8,126.52-288,282-288s282,129.19,282,288-126.52,288-282,288S549.5,722.41,549.5,563.61Zm16.46,0c0,149.72,119.14,271.53,265.58,271.53s265.57-121.81,265.57-271.53S978,292.09,831.54,292.09,566,413.89,566,563.61Z"/><ellipse class="cls-11" cx="997.95" cy="683.16" rx="35.47" ry="20.34"/><ellipse class="cls-11" cx="729.52" cy="686.13" rx="37.37" ry="22.32"/><path class="cls-5" d="M911,682.54a56.73,56.73,0,0,1-49.55,27.05c-21-.42-35.92-14.9-45.91-32.53a2,2,0,0,0-3.76,1.22,55.58,55.58,0,0,0,4.2,17.23c16.48,39.07,71.39,40.25,93,5.37a40.24,40.24,0,0,0,5.79-17.11,2,2,0,0,0-3.77-1.23Z"/><ellipse class="cls-12" cx="1029.95" cy="181.01" rx="36.04" ry="29.1" transform="translate(470.44 1064.48) rotate(-67.62)"/><path class="cls-5" d="M1013.09,222c-9.53-3.92-16.55-12-19.77-22.86a48.81,48.81,0,0,1,2.11-32.29h0a48.76,48.76,0,0,1,21.24-24.41c9.9-5.43,20.6-6.25,30.14-2.32s16.55,12,19.76,22.86a48.74,48.74,0,0,1-2.1,32.29c-7.36,17.89-23.36,29.13-39.16,29.13A31.9,31.9,0,0,1,1013.09,222Zm11.49-65.12a32.34,32.34,0,0,0-13.93,16.24h0a32.27,32.27,0,0,0-1.54,21.33c1.77,5.95,5.41,10.33,10.25,12.33,10.64,4.37,24.05-3.6,29.88-17.78a32.28,32.28,0,0,0,1.55-21.33c-1.77-6-5.41-10.33-10.25-12.33a15.85,15.85,0,0,0-6.07-1.18A20.72,20.72,0,0,0,1024.58,156.83Z"/><ellipse class="cls-12" cx="748.78" cy="174" rx="36.04" ry="29.1" transform="translate(302.8 800.14) rotate(-67.62)"/><path class="cls-5" d="M731.92,214.94c-19-7.83-26.95-32.58-17.66-55.16h0a48.77,48.77,0,0,1,21.24-24.4c9.91-5.43,20.61-6.25,30.14-2.32s16.55,12,19.77,22.86a50.57,50.57,0,0,1-23.35,56.7,36.92,36.92,0,0,1-17.77,4.77A32.26,32.26,0,0,1,731.92,214.94Zm11.49-65.12a32.29,32.29,0,0,0-13.92,16.23h0c-5.84,14.18-1.93,29.29,8.7,33.67,4.84,2,10.51,1.45,16-1.54a34.16,34.16,0,0,0,15.47-37.57c-1.77-6-5.41-10.33-10.25-12.33a15.82,15.82,0,0,0-6.07-1.18A20.75,20.75,0,0,0,743.41,149.82Z"/><path class="cls-5" d="M946.4,317.83a8.24,8.24,0,0,0,7.68-5.26c15.4-39.78,35.67-72.65,60.23-97.67a8.23,8.23,0,0,0-11.76-11.53c-26.14,26.63-47.61,61.37-63.82,103.26a8.23,8.23,0,0,0,4.7,10.65A8.38,8.38,0,0,0,946.4,317.83Z"/><path class="cls-5" d="M732.16,342.35a8.06,8.06,0,0,0,3-.55,8.23,8.23,0,0,0,4.74-10.64c-23.12-60.18-.29-118.21-.06-118.79a8.23,8.23,0,0,0-15.26-6.19c-1,2.61-25.57,64.46-.06,130.89A8.24,8.24,0,0,0,732.16,342.35Z"/><g class="cls-13"><ellipse class="cls-4" cx="756.97" cy="165.8" rx="11.74" ry="14.88"/></g><g class="cls-13"><ellipse class="cls-4" cx="1040.37" cy="171.68" rx="11.74" ry="14.88"/></g><path class="cls-8" d="M510.53,791.17c10.77,19.57,26.86,39.43,50.73,57.16a16.61,16.61,0,0,0,6.87,3,16.87,16.87,0,0,0,13.25-30.1C561,806.09,547.61,789,538.94,772.32c-21.25-40.69-14.54-78.75-14.45-79.28a16.85,16.85,0,0,0-13.39-19.68H511a16.83,16.83,0,0,0-19.68,13.43C490.8,689.64,482,739.39,510.53,791.17Z"/><path class="cls-5" d="M566.57,859.44h0a24.91,24.91,0,0,1-10.2-4.5c-91.11-67.65-73.88-165.53-73.1-169.67a25.1,25.1,0,0,1,49.34,9.25c-.13.71-11.83,71.47,53.68,120.12a25.09,25.09,0,0,1,5.19,35.11,25.26,25.26,0,0,1-20.22,10.14A24.65,24.65,0,0,1,566.57,859.44Zm1.53-8.08h0Zm-68.66-163c-.7,3.72-16.2,91.82,66.73,153.4a8.59,8.59,0,0,0,3.51,1.55h0a8.63,8.63,0,0,0,6.78-15.41c-74.4-55.25-60.21-135.54-60.05-136.34a8.63,8.63,0,0,0-17-3.2Z"/><path class="cls-8" d="M278.25,950.42A16.86,16.86,0,0,0,299,962.14c25.65-7.14,45.87-18.69,61.77-32a0,0,0,0,0,0,0c47.26-39.58,56.36-95,56.84-98.08a16.86,16.86,0,0,0-33.33-5.15c-.3,1.92-4.76,27.79-23.51,53.83-14.07,19.6-36.25,39.3-70.84,48.92A16.88,16.88,0,0,0,278.25,950.42Z"/><path class="cls-5" d="M270.32,952.62a25.12,25.12,0,0,1,17.45-30.91c75.48-21,87.93-93.09,88.42-96.1a25.1,25.1,0,0,1,49.6,7.68c-.67,4.35-17.6,107-124.56,136.78a25.1,25.1,0,0,1-30.91-17.45ZM392.45,828.19c-.56,3.48-14.74,85.56-100.26,109.38a8.63,8.63,0,0,0,2.3,16.95,8.79,8.79,0,0,0,2.33-.32c96.82-27,112.09-119.48,112.7-123.41a8.65,8.65,0,0,0-7.23-9.84,9.75,9.75,0,0,0-1.31-.1A8.67,8.67,0,0,0,392.45,828.19Z"/><g class="cls-6"><path class="cls-7" d="M360.81,930.12c47.26-39.58,56.36-95,56.84-98.08a16.86,16.86,0,0,0-33.33-5.15c-.3,1.92-4.76,27.79-23.51,53.83C360.81,880.72,381.48,899.15,360.81,930.12Z"/></g><g class="cls-6"><path class="cls-7" d="M510.53,791.17a32.5,32.5,0,0,0,.57-5.34c1-30.75,27.82-13.49,27.82-13.49l0,0c-21.25-40.69-14.54-78.75-14.45-79.28a16.85,16.85,0,0,0-13.39-19.68H511a16.83,16.83,0,0,0-19.68,13.43C490.8,689.64,482,739.39,510.53,791.17Z"/></g><g class="cls-6"><path class="cls-7" d="M395,455.3,515,443l-.65-1.19c-166.55-2-222.94-348.45-86.59-395l0,0C309.4,54.93,207.27,192.84,395,455.3Z"/></g><g class="cls-6"><path class="cls-7" d="M237.06,563.61a335.05,335.05,0,0,1,36.48-37.54v0a361.14,361.14,0,0,1,51.39-37.73C208.13,520.38,24.38,399.8,95.63,266.25,17.06,338.24,14.89,509.69,237.06,563.61Z"/></g><path class="cls-9" d="M957.71,507.37c-23.87,1.67-41.08,31.1-38.44,65.73s24.12,61.36,48,59.69,41.08-31.1,38.44-65.73S981.58,505.7,957.71,507.37Z"/><path class="cls-4" d="M958.53,521.93c-6.93,4.41-8.14,16.57-2.7,27.14s15.47,15.58,22.41,11.16,8.14-16.57,2.7-27.14S965.47,517.51,958.53,521.93Z"/><path class="cls-14" d="M946.06,599.53c-3.09,3.23-2.41,9.7,1.51,14.44s9.6,6,12.68,2.74,2.41-9.7-1.51-14.44S949.14,596.29,946.06,599.53Z"/><path class="cls-5" d="M722.4,534.29c32.12,8.84,56,34.82,68.32,65l12.44-17.45a262,262,0,0,0-45.84.67c-15.19,1.68-30.26,5.19-44.06,11.24a2.46,2.46,0,0,0,1.49,4.67c28.38-5.63,57-.89,84.41,6.89,10.22,3,18.56-8.87,12.45-17.44-15-22.87-36.13-43.09-62.17-52.52a108.38,108.38,0,0,0-26.05-6.06,2.58,2.58,0,0,0-1,5Z"/><path d="M1509.58,820.85H1309.24V503.33h95.58v29.16h98.28q10.8,0,19.44-8.37t8.64-19.71a28.59,28.59,0,0,0-28.08-28.08H1309.24V380.75H1503.1q51.3,0,87.48,36.45t36.18,87.21a118.94,118.94,0,0,1-20,67q47,43.21,47,105.3,0,59.42-42.39,101.79T1509.58,820.85ZM1404.82,628.61v96.66h104.76a48.86,48.86,0,0,0,48.6-48.6q0-19.44-14.58-33.75t-34-14.31Z"/><path d="M1728,526.82q50.49-50.48,121.77-50.49t121.77,50.49Q2022,577.33,2022,648.59a163.91,163.91,0,0,1-1.62,23.22H1805V614h113.4a73.23,73.23,0,0,0-27.81-30.51,75.69,75.69,0,0,0-40.77-11.61q-31.32,0-54,22.41t-22.68,54.27q0,31.88,22.68,54t54,22.14a78.67,78.67,0,0,0,35.64-8.64H2008A170.43,170.43,0,0,1,1945.36,792q-42.66,28.9-95.58,28.89-71.28,0-121.77-50.49t-50.49-121.77Q1677.52,577.31,1728,526.82Z"/><path d="M2103.85,526.82q50.49-50.48,121.77-50.49t121.77,50.49q50.49,50.51,50.49,121.77a163.91,163.91,0,0,1-1.62,23.22H2180.8V614h113.4a73.23,73.23,0,0,0-27.81-30.51,75.69,75.69,0,0,0-40.77-11.61q-31.32,0-54,22.41t-22.68,54.27q0,31.88,22.68,54t54,22.14a78.67,78.67,0,0,0,35.64-8.64h122.58A170.43,170.43,0,0,1,2321.2,792q-42.66,28.9-95.58,28.89-71.28,0-121.77-50.49t-50.49-121.77Q2053.36,577.31,2103.85,526.82Z"/><path class="cls-15" d="M2445.4,696.65V529.79h-34.56V476.33h34.56V380.75H2541v95.58h34.56v53.46H2541V696.65a27.13,27.13,0,0,0,8.64,20.25,28.43,28.43,0,0,0,20.52,8.37h8.64v95.58h-8.64q-51.84,0-88.29-36.45T2445.4,696.65Z"/><path class="cls-15" d="M2627.91,476.33H2724V820.85h-96.12Zm17.55-82.89A43,43,0,1,1,2632.77,424,41.62,41.62,0,0,1,2645.46,393.44Z"/><path class="cls-15" d="M2812.86,526.82q50.47-50.48,121.77-50.49t121.77,50.49q50.47,50.51,50.49,121.77T3056.4,770.36q-50.51,50.51-121.77,50.49t-121.77-50.49q-50.51-50.48-50.49-121.77T2812.86,526.82Zm176,67.5q-22.43-22.4-54.27-22.41t-54.27,22.41q-22.43,22.42-22.41,54.27,0,31.33,22.41,53.73t54.27,22.41q31.85,0,54.27-22.41t22.41-53.73Q3011.31,616.75,2988.9,594.32Z"/><path class="cls-15" d="M3440.6,820.85H3345V629.15q0-23.21-16.74-40.23a54.73,54.73,0,0,0-40.5-17q-23.22,0-40.23,17t-17,40.23v191.7h-96.12V629.15q0-62.62,45.36-107.73t108-45.09q63.18,0,108,44.82t44.82,108Z"/><path class="cls-15" d="M3523,526.82q50.49-50.48,121.77-50.49t121.77,50.49Q3817,577.33,3817,648.59V820.85H3721.4V648.59q0-31.85-22.41-54.27t-54.27-22.41q-31.32,0-53.73,22.41t-22.41,54.27q0,31.88,22.41,54.27t53.73,22.41q28.62,0,49.68-18.36V813.83a185.53,185.53,0,0,1-49.68,7q-71.28,0-121.77-50.49t-50.49-121.77Q3472.46,577.31,3523,526.82Z"/><path class="cls-15" d="M3858,648.59q0-71.28,50.22-121.77t121.5-50.49v95.58q-31.86,0-54,22.41t-22.14,54.27V820.85H3858Z"/><path class="cls-15" d="M4277.05,843.53q-18.92,51.3-62.91,81.81t-96.39,31V860.81a77.24,77.24,0,0,0,42.12-14.58,74,74,0,0,0,27-35.64l8.64-22.68L4055.65,476.33h104.76l82.08,182.52,66.42-182.52H4411Z"/></svg>